<svg width="500" height="500" viewBox="0 0 500 500" fill="none" xmlns="http://www.w3.org/2000/svg">
<path d="M402.63 268.22C317.78 219.22 180.63 219.22 96.37 268.22C12.11 317.22 12.52 396.64 97.37 445.62C182.22 494.6 319.37 494.62 403.63 445.62C487.89 396.62 487.48 317.21 402.63 268.22Z" fill="#F5F5F5"/>
<path d="M274.61 359.51C249.69 345.12 209.41 345.12 184.61 359.51C159.81 373.9 159.99 397.23 184.91 411.61C209.83 425.99 250.1 426 274.86 411.61C299.62 397.22 299.53 373.9 274.61 359.51Z" fill="#E6E6E6"/>
<path d="M212.11 434C196.94 425.23 172.41 425.23 157.34 434C142.27 442.77 142.34 457 157.51 465.72C172.68 474.44 197.21 474.49 212.29 465.72C227.37 456.95 227.29 442.79 212.11 434Z" fill="#E6E6E6"/>
<path d="M431.73 311.73C416.55 303 392 303 377 311.73C362 320.46 362 334.73 377.17 343.46C392.34 352.19 416.87 352.22 431.95 343.46C447.03 334.7 446.91 320.49 431.73 311.73Z" fill="#E6E6E6"/>
<path d="M384.5 406.05L329.97 374.01L228.76 423.43L290.22 459.88L384.5 406.05Z" fill="#E6E6E6"/>
<path d="M131.86 92.21L126.35 89.11L87.89 111.31L88.68 387.34L94.19 390.44L132.65 368.24L131.86 92.21Z" fill="#FF671F" fill-opacity="0.85"/>
<path opacity="0.2" d="M131.86 92.21L126.35 89.11L87.89 111.31L88.68 387.34L94.19 390.44L132.65 368.24L131.86 92.21Z" fill="black"/>
<path d="M112.71 115.64L117.38 123.76L127.76 119.51L120.27 132.25L122.08 143.11L112.78 142.86L103.51 153.83L105.25 140.93L97.72 136.85L108.1 129.12L112.71 115.64Z" fill="white"/>
<path d="M113.25 308.36L117.92 316.49L128.31 312.23L120.82 324.98L122.63 335.83L113.33 335.58L104.06 346.55L105.8 333.65L98.27 329.58L108.64 321.85L113.25 308.36Z" fill="white"/>
<path d="M113.12 260.18L117.79 268.31L128.17 264.05L120.68 276.8L122.49 287.65L113.19 287.4L103.92 298.37L105.66 285.47L98.13 281.4L108.51 273.66L113.12 260.18Z" fill="white"/>
<path d="M112.98 212L117.65 220.13L128.03 215.87L120.55 228.62L122.35 239.47L113.06 239.22L103.79 250.19L105.53 237.29L97.99 233.21L108.37 225.48L112.98 212Z" fill="white"/>
<path d="M112.84 163.82L117.51 171.95L127.89 167.69L120.41 180.43L122.22 191.29L112.92 191.04L103.65 202.01L105.39 189.1L97.86 185.03L108.23 177.31L112.84 163.82Z" fill="white"/>
<path opacity="0.2" d="M87.89 111.31L88.68 387.34L94.19 390.44L93.41 114.41L87.89 111.31Z" fill="black"/>
<path opacity="0.1" d="M131.86 92.21L126.35 89.11L87.89 111.31L93.41 114.41L131.86 92.21Z" fill="white"/>
<path d="M276.81 28.68L271.3 25.59L232.85 47.79L233.63 323.82L239.14 326.92L277.6 304.72L276.81 28.68Z" fill="#FF671F" fill-opacity="0.85"/>
<path opacity="0.2" d="M276.81 28.68L271.3 25.59L232.85 47.79L233.63 323.82L239.14 326.92L277.6 304.72L276.81 28.68Z" fill="black"/>
<path d="M257.66 52.11L262.33 60.24L272.71 55.98L265.23 68.73L267.03 79.58L257.74 79.33L248.46 90.31L250.2 77.4L242.67 73.33L253.05 65.59L257.66 52.11Z" fill="white"/>
<path d="M258.2 244.84L262.88 252.97L273.26 248.71L265.77 261.45L267.58 272.31L258.28 272.06L249.01 283.03L250.75 270.13L243.22 266.05L253.59 258.33L258.2 244.84Z" fill="white"/>
<path d="M258.07 196.66L262.74 204.78L273.12 200.53L265.64 213.27L267.44 224.13L258.14 223.88L248.87 234.85L250.61 221.95L243.08 217.87L253.46 210.14L258.07 196.66Z" fill="white"/>
<path d="M257.93 148.47L262.6 156.6L272.98 152.34L265.5 165.09L267.31 175.94L258.01 175.7L248.74 186.66L250.48 173.77L242.94 169.69L253.32 161.96L257.93 148.47Z" fill="white"/>
<path d="M257.8 100.29L262.47 108.42L272.85 104.16L265.36 116.91L267.17 127.76L257.87 127.51L248.6 138.48L250.34 125.58L242.81 121.51L253.19 113.78L257.8 100.29Z" fill="white"/>
<path opacity="0.2" d="M232.85 47.79L233.63 323.82L239.14 326.92L238.36 50.88L232.85 47.79Z" fill="black"/>
<path opacity="0.1" d="M276.81 28.68L271.3 25.59L232.85 47.79L238.36 50.88L276.81 28.68Z" fill="white"/>
<path d="M199.57 454.09C197.883 454.949 196.018 455.396 194.125 455.396C192.232 455.396 190.367 454.949 188.68 454.09C188.057 453.812 187.519 453.375 187.12 452.821C186.721 452.268 186.476 451.619 186.41 450.94V456.14C186.476 456.819 186.721 457.468 187.12 458.021C187.519 458.574 188.057 459.012 188.68 459.29C190.367 460.149 192.232 460.596 194.125 460.596C196.018 460.596 197.883 460.149 199.57 459.29C200.19 459.012 200.724 458.573 201.118 458.019C201.512 457.466 201.75 456.817 201.81 456.14V450.94C201.75 451.617 201.512 452.266 201.118 452.819C200.724 453.373 200.19 453.812 199.57 454.09Z" fill="#FF671F" fill-opacity="0.85"/>
<path d="M188.68 454.09C190.367 454.949 192.232 455.396 194.125 455.396C196.018 455.396 197.883 454.949 199.57 454.09C200.19 453.812 200.724 453.373 201.118 452.819C201.512 452.266 201.75 451.617 201.81 450.94C201.741 450.261 201.493 449.612 201.093 449.059C200.693 448.506 200.154 448.068 199.53 447.79C197.845 446.933 195.981 446.486 194.09 446.486C192.199 446.486 190.335 446.933 188.65 447.79C188.029 448.067 187.494 448.505 187.1 449.059C186.706 449.613 186.467 450.263 186.41 450.94C186.476 451.619 186.721 452.268 187.12 452.821C187.519 453.375 188.057 453.812 188.68 454.09Z" fill="#FF671F" fill-opacity="0.85"/>
<path opacity="0.4" d="M199.57 454.09C197.883 454.949 196.018 455.396 194.125 455.396C192.232 455.396 190.367 454.949 188.68 454.09C188.057 453.812 187.519 453.375 187.12 452.821C186.721 452.268 186.476 451.619 186.41 450.94V456.14C186.476 456.819 186.721 457.468 187.12 458.021C187.519 458.574 188.057 459.012 188.68 459.29C190.367 460.149 192.232 460.596 194.125 460.596C196.018 460.596 197.883 460.149 199.57 459.29C200.19 459.012 200.724 458.573 201.118 458.019C201.512 457.466 201.75 456.817 201.81 456.14V450.94C201.75 451.617 201.512 452.266 201.118 452.819C200.724 453.373 200.19 453.812 199.57 454.09Z" fill="black"/>
<path opacity="0.3" d="M188.68 454.09C190.367 454.949 192.232 455.396 194.125 455.396C196.018 455.396 197.883 454.949 199.57 454.09C200.19 453.812 200.724 453.373 201.118 452.819C201.512 452.266 201.75 451.617 201.81 450.94C201.741 450.261 201.493 449.612 201.093 449.059C200.693 448.506 200.154 448.068 199.53 447.79C197.845 446.933 195.981 446.486 194.09 446.486C192.199 446.486 190.335 446.933 188.65 447.79C188.029 448.067 187.494 448.505 187.1 449.059C186.706 449.613 186.467 450.263 186.41 450.94C186.476 451.619 186.721 452.268 187.12 452.821C187.519 453.375 188.057 453.812 188.68 454.09Z" fill="black"/>
<path d="M194.11 451.18C194.048 451.18 193.988 451.156 193.944 451.113C193.899 451.07 193.873 451.012 193.87 450.95L192.06 403.54C192.059 403.509 192.064 403.477 192.074 403.447C192.085 403.418 192.102 403.391 192.123 403.367C192.145 403.344 192.17 403.325 192.199 403.312C192.228 403.299 192.258 403.291 192.29 403.29C192.351 403.29 192.41 403.314 192.453 403.357C192.496 403.401 192.52 403.459 192.52 403.52L194.34 450.93C194.34 450.993 194.317 451.054 194.274 451.1C194.231 451.146 194.173 451.175 194.11 451.18Z" fill="#E0E0E0"/>
<path d="M191.995 412.924C203.732 411.354 211.776 399.094 209.963 385.54C208.149 371.986 197.165 362.272 185.429 363.842C173.692 365.412 165.648 377.672 167.461 391.226C169.275 404.78 180.259 414.495 191.995 412.924Z" fill="#FF671F" fill-opacity="0.85"/>
<path opacity="0.1" d="M191.995 412.924C203.732 411.354 211.776 399.094 209.963 385.54C208.149 371.986 197.165 362.272 185.429 363.842C173.692 365.412 165.648 377.672 167.461 391.226C169.275 404.78 180.259 414.495 191.995 412.924Z" fill="black"/>
<path opacity="0.1" d="M184 380L184.73 379.3C185.184 378.897 185.547 378.401 185.794 377.846C186.04 377.29 186.165 376.689 186.159 376.081C186.153 375.474 186.017 374.875 185.761 374.324C185.504 373.774 185.132 373.285 184.67 372.89C184.319 372.612 183.952 372.355 183.57 372.12C182.625 371.559 181.501 371.38 180.429 371.62C179.356 371.859 178.416 372.5 177.8 373.41C177.51 373.83 177.23 374.26 176.97 374.7C176.4 375.662 176.228 376.81 176.492 377.897C176.755 378.984 177.433 379.925 178.38 380.52L178.83 380.78C179.662 381.22 180.613 381.382 181.543 381.241C182.474 381.101 183.335 380.666 184 380Z" fill="white"/>
<path opacity="0.1" d="M177.93 392.79C178.077 390.615 178.616 388.484 179.52 386.5C179.815 385.837 179.877 385.093 179.696 384.39C179.514 383.687 179.1 383.067 178.52 382.63L178.29 382.47C177.834 382.164 177.308 381.98 176.762 381.934C176.215 381.888 175.666 381.982 175.165 382.207C174.665 382.432 174.23 382.781 173.902 383.221C173.574 383.66 173.363 384.176 173.29 384.72C173.29 384.95 173.22 385.17 173.2 385.4C172.567 390.763 173.542 396.192 176 401C178.09 405.1 181.5 408.8 186 410C181.18 406.06 177.54 398.92 177.93 392.79Z" fill="white"/>
<path d="M194.11 451.18C194.063 451.178 194.017 451.163 193.978 451.137C193.939 451.11 193.909 451.073 193.89 451.03L167.89 391.14C167.877 391.112 167.869 391.081 167.868 391.05C167.867 391.019 167.873 390.988 167.884 390.959C167.895 390.93 167.912 390.904 167.934 390.882C167.955 390.86 167.981 390.842 168.01 390.83C168.038 390.817 168.069 390.809 168.1 390.808C168.131 390.807 168.162 390.813 168.191 390.824C168.22 390.835 168.246 390.852 168.268 390.874C168.29 390.895 168.308 390.921 168.32 390.95L194.32 450.85C194.343 450.908 194.343 450.974 194.318 451.032C194.294 451.09 194.248 451.136 194.19 451.16L194.11 451.18Z" fill="#E0E0E0"/>
<path d="M194.11 451.18C194.051 451.181 193.994 451.16 193.95 451.12L170.13 429.41C170.108 429.388 170.09 429.361 170.078 429.332C170.066 429.303 170.059 429.272 170.059 429.24C170.059 429.208 170.066 429.177 170.078 429.148C170.09 429.119 170.108 429.092 170.13 429.07C170.175 429.028 170.234 429.004 170.295 429.004C170.356 429.004 170.415 429.028 170.46 429.07L194.28 450.77C194.302 450.792 194.32 450.819 194.332 450.848C194.344 450.877 194.351 450.908 194.351 450.94C194.351 450.972 194.344 451.003 194.332 451.032C194.32 451.061 194.302 451.088 194.28 451.11C194.258 451.133 194.232 451.151 194.202 451.163C194.173 451.175 194.142 451.181 194.11 451.18Z" fill="#E0E0E0"/>
<path d="M168.1 399.28C180.025 394.444 185.165 379.36 179.581 365.587C173.997 351.814 159.803 344.568 147.877 349.403C135.952 354.238 130.812 369.323 136.396 383.096C141.98 396.869 156.174 404.115 168.1 399.28Z" fill="#FF671F" fill-opacity="0.85"/>
<path opacity="0.3" d="M168.1 399.28C180.025 394.444 185.165 379.36 179.581 365.587C173.997 351.814 159.803 344.568 147.877 349.403C135.952 354.238 130.812 369.323 136.396 383.096C141.98 396.869 156.174 404.115 168.1 399.28Z" fill="white"/>
<path opacity="0.3" d="M150.73 366.83C150.91 366.51 151.11 366.21 151.31 365.9C151.679 365.352 151.926 364.731 152.035 364.079C152.144 363.427 152.112 362.759 151.942 362.121C151.771 361.482 151.466 360.888 151.046 360.377C150.627 359.866 150.103 359.451 149.51 359.16C149.066 358.959 148.608 358.789 148.14 358.65C146.993 358.315 145.761 358.431 144.696 358.973C143.631 359.516 142.813 360.445 142.41 361.57C142.23 362.09 142.05 362.62 141.89 363.15C141.551 364.317 141.681 365.57 142.253 366.642C142.824 367.714 143.792 368.521 144.95 368.89L145.5 369.04C146.493 369.281 147.538 369.196 148.48 368.798C149.421 368.4 150.21 367.71 150.73 366.83Z" fill="white"/>
<path opacity="0.3" d="M147.82 381.91C147.41 379.578 147.41 377.192 147.82 374.86C147.951 374.081 147.812 373.281 147.426 372.592C147.041 371.903 146.432 371.366 145.7 371.07L145.42 370.96C144.86 370.766 144.259 370.718 143.675 370.82C143.091 370.921 142.542 371.17 142.081 371.542C141.619 371.913 141.259 372.396 141.035 372.945C140.811 373.494 140.73 374.091 140.8 374.68C140.8 374.92 140.8 375.17 140.88 375.41C141.651 381.223 144.129 386.676 148 391.08C151.31 394.82 155.9 397.8 160.9 397.81C154.85 395 149.08 388.47 147.82 381.91Z" fill="white"/>
<path d="M173.429 433.81C181.862 424.347 179.839 408.78 168.909 399.038C157.979 389.297 142.282 389.07 133.848 398.532C125.415 407.994 127.439 423.562 138.369 433.304C149.298 443.045 164.996 443.272 173.429 433.81Z" fill="#FF671F" fill-opacity="0.85"/>
<path opacity="0.1" d="M173.429 433.81C181.862 424.347 179.839 408.78 168.909 399.038C157.979 389.297 142.282 389.07 133.848 398.532C125.415 407.994 127.439 423.562 138.369 433.304C149.298 443.045 164.996 443.272 173.429 433.81Z" fill="white"/>
<path opacity="0.1" d="M144 412.7C144 412.34 144.06 411.99 144.11 411.63C144.197 410.985 144.145 410.33 143.958 409.707C143.77 409.084 143.452 408.508 143.024 408.019C142.596 407.529 142.068 407.137 141.476 406.868C140.883 406.599 140.24 406.46 139.59 406.46H139.53C139.047 406.472 138.566 406.519 138.09 406.6C136.933 406.808 135.898 407.449 135.196 408.393C134.494 409.336 134.177 410.512 134.31 411.68C134.37 412.22 134.44 412.76 134.54 413.3C134.744 414.479 135.401 415.53 136.372 416.23C137.342 416.929 138.548 417.22 139.73 417.04L140.28 416.94C141.276 416.732 142.178 416.207 142.849 415.442C143.52 414.677 143.924 413.715 144 412.7Z" fill="white"/>
<path opacity="0.1" d="M148 427.3C146.609 425.425 145.559 423.32 144.9 421.08C144.675 420.334 144.203 419.688 143.561 419.246C142.92 418.804 142.147 418.594 141.37 418.65H141.08C140.503 418.725 139.954 418.945 139.484 419.289C139.015 419.633 138.639 420.09 138.393 420.617C138.147 421.145 138.038 421.726 138.075 422.306C138.113 422.887 138.297 423.449 138.61 423.94L139 424.56C142.225 429.357 146.797 433.094 152.14 435.3C156.7 437.16 162.05 437.79 166.48 435.63C159.85 435.8 151.91 432.55 148 427.3Z" fill="white"/>
<path d="M418.77 329.53C417.083 330.389 415.218 330.836 413.325 330.836C411.432 330.836 409.567 330.389 407.88 329.53C407.256 329.254 406.717 328.817 406.318 328.263C405.919 327.709 405.674 327.059 405.61 326.38V331.58C405.674 332.259 405.919 332.909 406.318 333.463C406.717 334.017 407.256 334.454 407.88 334.73C409.567 335.589 411.432 336.036 413.325 336.036C415.218 336.036 417.083 335.589 418.77 334.73C419.39 334.453 419.924 334.014 420.316 333.46C420.708 332.906 420.945 332.257 421 331.58V326.38C420.942 327.056 420.705 327.704 420.313 328.258C419.921 328.812 419.389 329.251 418.77 329.53Z" fill="#FF671F" fill-opacity="0.85"/>
<path d="M407.88 329.53C409.567 330.389 411.432 330.836 413.325 330.836C415.218 330.836 417.083 330.389 418.77 329.53C419.427 329.305 419.996 328.88 420.4 328.316C420.803 327.751 421.02 327.074 421.02 326.38C421.02 325.686 420.803 325.009 420.4 324.445C419.996 323.88 419.427 323.455 418.77 323.23C417.083 322.371 415.218 321.924 413.325 321.924C411.432 321.924 409.567 322.371 407.88 323.23C407.223 323.455 406.654 323.88 406.25 324.445C405.847 325.009 405.63 325.686 405.63 326.38C405.63 327.074 405.847 327.751 406.25 328.316C406.654 328.88 407.223 329.305 407.88 329.53Z" fill="#FF671F" fill-opacity="0.85"/>
<path opacity="0.4" d="M418.77 329.53C417.083 330.389 415.218 330.836 413.325 330.836C411.432 330.836 409.567 330.389 407.88 329.53C407.256 329.254 406.717 328.817 406.318 328.263C405.919 327.709 405.674 327.059 405.61 326.38V331.58C405.674 332.259 405.919 332.909 406.318 333.463C406.717 334.017 407.256 334.454 407.88 334.73C409.567 335.589 411.432 336.036 413.325 336.036C415.218 336.036 417.083 335.589 418.77 334.73C419.39 334.453 419.924 334.014 420.316 333.46C420.708 332.906 420.945 332.257 421 331.58V326.38C420.942 327.056 420.705 327.704 420.313 328.258C419.921 328.812 419.389 329.251 418.77 329.53Z" fill="black"/>
<path opacity="0.3" d="M407.88 329.53C409.567 330.389 411.432 330.836 413.325 330.836C415.218 330.836 417.083 330.389 418.77 329.53C419.427 329.305 419.996 328.88 420.4 328.316C420.803 327.751 421.02 327.074 421.02 326.38C421.02 325.686 420.803 325.009 420.4 324.445C419.996 323.88 419.427 323.455 418.77 323.23C417.083 322.371 415.218 321.924 413.325 321.924C411.432 321.924 409.567 322.371 407.88 323.23C407.223 323.455 406.654 323.88 406.25 324.445C405.847 325.009 405.63 325.686 405.63 326.38C405.63 327.074 405.847 327.751 406.25 328.316C406.654 328.88 407.223 329.305 407.88 329.53Z" fill="black"/>
<path d="M413.3 326.62C413.239 326.62 413.18 326.596 413.137 326.553C413.094 326.51 413.07 326.451 413.07 326.39L411.26 279C411.257 278.938 411.279 278.877 411.32 278.831C411.361 278.784 411.418 278.755 411.48 278.75C411.511 278.749 411.542 278.754 411.571 278.765C411.6 278.776 411.627 278.792 411.649 278.814C411.672 278.835 411.689 278.861 411.702 278.89C411.714 278.918 411.72 278.949 411.72 278.98L413.53 326.39C413.531 326.422 413.526 326.453 413.516 326.483C413.505 326.512 413.488 326.539 413.467 326.563C413.445 326.586 413.42 326.605 413.391 326.618C413.362 326.631 413.332 326.639 413.3 326.64V326.62Z" fill="#E0E0E0"/>
<path d="M411.203 288.388C422.939 286.818 430.983 274.557 429.17 261.004C427.357 247.45 416.373 237.735 404.636 239.305C392.9 240.875 384.855 253.136 386.669 266.69C388.482 280.243 399.466 289.958 411.203 288.388Z" fill="#FF671F" fill-opacity="0.85"/>
<path opacity="0.1" d="M411.203 288.388C422.939 286.818 430.983 274.557 429.17 261.004C427.357 247.45 416.373 237.735 404.636 239.305C392.9 240.875 384.855 253.136 386.669 266.69C388.482 280.243 399.466 289.958 411.203 288.388Z" fill="black"/>
<path opacity="0.1" d="M403.17 255.46L403.9 254.76C404.358 254.361 404.725 253.869 404.977 253.316C405.229 252.763 405.359 252.162 405.359 251.555C405.359 250.948 405.229 250.347 404.977 249.794C404.725 249.241 404.358 248.749 403.9 248.35C403.544 248.074 403.173 247.817 402.79 247.58C401.844 247.021 400.722 246.844 399.65 247.083C398.578 247.323 397.638 247.962 397.02 248.87C396.74 249.29 396.46 249.72 396.2 250.16C395.629 251.12 395.456 252.264 395.718 253.35C395.98 254.435 396.655 255.375 397.6 255.97L398.05 256.24C398.876 256.67 399.817 256.826 400.737 256.685C401.658 256.545 402.51 256.116 403.17 255.46Z" fill="white"/>
<path opacity="0.1" d="M397.12 268.23C397.278 266.053 397.816 263.921 398.71 261.93C399.008 261.269 399.072 260.526 398.89 259.824C398.708 259.122 398.292 258.503 397.71 258.07L397.49 257.91C397.034 257.607 396.508 257.425 395.962 257.381C395.417 257.336 394.868 257.43 394.369 257.655C393.87 257.88 393.435 258.227 393.107 258.666C392.778 259.104 392.566 259.618 392.49 260.16L392.4 260.84C391.758 266.2 392.722 271.629 395.17 276.44C397.27 280.54 400.67 284.24 405.17 285.44C400.38 281.5 396.73 274.36 397.12 268.23Z" fill="white"/>
<path d="M413.3 326.62C413.254 326.618 413.21 326.602 413.173 326.576C413.136 326.549 413.107 326.512 413.09 326.47L387.09 266.58C387.067 266.522 387.067 266.456 387.092 266.398C387.116 266.34 387.162 266.294 387.22 266.27C387.248 266.257 387.279 266.249 387.31 266.248C387.341 266.247 387.372 266.253 387.401 266.264C387.43 266.275 387.456 266.292 387.478 266.314C387.5 266.335 387.518 266.361 387.53 266.39L413.53 326.28C413.554 326.339 413.555 326.404 413.533 326.464C413.511 326.523 413.467 326.572 413.41 326.6L413.3 326.62Z" fill="#E0E0E0"/>
<path d="M413.3 326.62C413.24 326.619 413.182 326.593 413.14 326.55L389.33 304.85C389.308 304.828 389.29 304.801 389.278 304.772C389.266 304.743 389.259 304.712 389.259 304.68C389.259 304.648 389.266 304.617 389.278 304.588C389.29 304.559 389.308 304.532 389.33 304.51C389.376 304.467 389.437 304.443 389.5 304.443C389.563 304.443 389.624 304.467 389.67 304.51L413.48 326.21C413.502 326.232 413.52 326.259 413.532 326.288C413.544 326.317 413.551 326.348 413.551 326.38C413.551 326.412 413.544 326.443 413.532 326.472C413.52 326.501 413.502 326.528 413.48 326.55C413.456 326.573 413.428 326.591 413.397 326.603C413.366 326.615 413.333 326.621 413.3 326.62Z" fill="#E0E0E0"/>
<path d="M387.307 274.738C399.232 269.903 404.372 254.818 398.788 241.045C393.204 227.272 379.01 220.027 367.084 224.862C355.159 229.697 350.019 244.782 355.603 258.555C361.187 272.328 375.381 279.573 387.307 274.738Z" fill="#FF671F" fill-opacity="0.85"/>
<path opacity="0.3" d="M387.307 274.738C399.232 269.903 404.372 254.818 398.788 241.045C393.204 227.272 379.01 220.027 367.084 224.862C355.159 229.697 350.019 244.782 355.603 258.555C361.187 272.328 375.381 279.573 387.307 274.738Z" fill="white"/>
<path opacity="0.3" d="M369.92 242.27C370.11 241.95 370.3 241.64 370.51 241.34C370.879 240.792 371.126 240.171 371.235 239.519C371.344 238.867 371.312 238.199 371.142 237.561C370.971 236.922 370.666 236.328 370.246 235.817C369.827 235.306 369.303 234.891 368.71 234.6H368.65C368.205 234.397 367.748 234.223 367.28 234.08C366.133 233.748 364.902 233.867 363.839 234.411C362.776 234.956 361.961 235.885 361.56 237.01C361.37 237.53 361.2 238.01 361.04 238.59C360.701 239.757 360.831 241.01 361.403 242.082C361.974 243.154 362.942 243.961 364.1 244.33L364.64 244.48C365.641 244.734 366.697 244.656 367.649 244.257C368.602 243.859 369.399 243.161 369.92 242.27Z" fill="white"/>
<path opacity="0.3" d="M367 257.35C366.58 255.019 366.58 252.631 367 250.3C367.129 249.522 366.989 248.722 366.604 248.034C366.218 247.345 365.611 246.808 364.88 246.51L364.6 246.4C364.04 246.207 363.44 246.16 362.857 246.261C362.274 246.362 361.725 246.61 361.263 246.98C360.801 247.35 360.44 247.831 360.214 248.379C359.988 248.926 359.904 249.522 359.97 250.11L360.06 250.85C360.836 256.665 363.321 262.119 367.2 266.52C370.52 270.26 375.11 273.24 380.11 273.25C374.05 270.44 368.27 263.91 367 257.35Z" fill="white"/>
<path d="M392.629 309.255C401.063 299.792 399.039 284.225 388.109 274.483C377.179 264.742 361.482 264.515 353.049 273.977C344.615 283.439 346.639 299.007 357.569 308.749C368.499 318.49 384.196 318.717 392.629 309.255Z" fill="#FF671F" fill-opacity="0.85"/>
<path opacity="0.1" d="M392.629 309.255C401.063 299.792 399.039 284.225 388.109 274.483C377.179 264.742 361.482 264.515 353.049 273.977C344.615 283.439 346.639 299.007 357.569 308.749C368.499 318.49 384.196 318.717 392.629 309.255Z" fill="white"/>
<path opacity="0.1" d="M363.14 288.14C363.14 287.78 363.21 287.43 363.25 287.07C363.339 286.425 363.288 285.769 363.101 285.145C362.915 284.522 362.596 283.945 362.168 283.455C361.739 282.965 361.211 282.573 360.618 282.304C360.025 282.036 359.381 281.898 358.73 281.9H358.68C358.197 281.912 357.716 281.959 357.24 282.04C356.083 282.246 355.047 282.885 354.343 283.826C353.639 284.768 353.32 285.942 353.45 287.11C353.51 287.66 353.59 288.2 353.68 288.74C353.888 289.918 354.549 290.968 355.52 291.667C356.491 292.366 357.697 292.657 358.88 292.48L359.43 292.38C360.426 292.174 361.327 291.648 361.996 290.882C362.666 290.117 363.068 289.154 363.14 288.14Z" fill="white"/>
<path opacity="0.1" d="M367.14 302.74C365.751 300.86 364.701 298.752 364.04 296.51C363.815 295.767 363.344 295.123 362.704 294.683C362.065 294.243 361.294 294.034 360.52 294.09H360.22C359.643 294.165 359.094 294.385 358.624 294.729C358.155 295.073 357.779 295.53 357.533 296.057C357.287 296.585 357.177 297.166 357.215 297.746C357.253 298.327 357.437 298.889 357.75 299.38L358.15 300C361.373 304.8 365.945 308.537 371.29 310.74C375.85 312.6 381.2 313.23 385.62 311.07C379.05 311.24 371.1 308 367.14 302.74Z" fill="white"/>
<path d="M296.47 193.13C303.83 194.18 306.68 200.59 304.78 204.93C294.33 209.27 293.68 196.12 296.47 193.13Z" fill="#455A64"/>
<path opacity="0.3" d="M296.47 193.13C303.83 194.18 306.68 200.59 304.78 204.93C294.33 209.27 293.68 196.12 296.47 193.13Z" fill="black"/>
<path d="M295.61 196.84L300.02 193.58C301.385 192.564 302.427 191.175 303.02 189.58L304.02 186.71C304.746 184.744 306.028 183.031 307.71 181.78C310.23 179.909 312.501 177.725 314.47 175.28C315.105 175.971 315.481 176.861 315.534 177.798C315.587 178.735 315.313 179.662 314.76 180.42C313.937 181.515 313.035 182.548 312.06 183.51L314.49 183.68C316.243 183.799 317.989 183.373 319.49 182.46L325.65 178.68C325.828 178.572 326.032 178.514 326.24 178.51C326.448 178.507 326.654 178.558 326.836 178.66C327.017 178.761 327.169 178.909 327.275 179.089C327.381 179.268 327.438 179.472 327.44 179.68C327.354 182.729 326.752 185.742 325.66 188.59C325.163 189.946 324.38 191.18 323.363 192.207C322.347 193.234 321.121 194.029 319.77 194.54C316.5 195.8 313.32 196.88 311.5 197.54C310.461 197.882 309.484 198.392 308.61 199.05L302.14 203.86L295.61 196.84Z" fill="#FFA8A7"/>
<path d="M307.4 192C308.172 191.819 308.901 191.487 309.544 191.023C310.187 190.559 310.732 189.972 311.147 189.295C311.561 188.619 311.838 187.868 311.96 187.084C312.083 186.3 312.049 185.5 311.86 184.73C312.331 185.353 312.639 186.083 312.758 186.854C312.877 187.626 312.802 188.415 312.54 189.15C312.255 189.864 311.795 190.496 311.203 190.987C310.611 191.478 309.905 191.812 309.15 191.96C308.569 192.023 307.983 192.037 307.4 192Z" fill="#F28F8F"/>
<path d="M300.4 192.59L294.84 196.18C295.018 198.252 295.787 200.229 297.056 201.876C298.326 203.523 300.042 204.77 302 205.47L307.1 200.65C307.1 200.65 302.18 199.89 300.4 192.59Z" fill="#F5F5F5"/>
<path d="M296.47 193.13L277.47 207.4L267.21 178.67C266.536 176.789 265.356 175.131 263.8 173.878C262.243 172.625 260.371 171.827 258.39 171.57L253.39 170.92L258 204.56L266 220.56C266.715 221.995 267.744 223.251 269.012 224.234C270.279 225.217 271.751 225.901 273.319 226.236C274.887 226.572 276.511 226.549 278.069 226.171C279.628 225.792 281.08 225.067 282.32 224.05L304.76 204.9C296.39 202.71 296.47 196.68 296.47 193.13Z" fill="#455A64"/>
<path opacity="0.1" d="M277.44 207.4L270.84 212.35L275.61 202.28L277.44 207.4Z" fill="black"/>
<path opacity="0.1" d="M265.32 219.19C266.43 205.19 267.32 193.87 254.54 179.5L258 204.56L265.32 219.19Z" fill="black"/>
<path d="M275.56 389.75C274.483 390.784 273.204 391.584 271.803 392.101C270.403 392.617 268.91 392.838 267.42 392.75C264.442 392.558 261.523 391.823 258.81 390.58C256.06 389.45 252.6 386.28 249.63 386.34C246.717 386.319 243.809 386.122 240.92 385.75C240.821 381.796 241.238 377.846 242.16 374L256.06 373.63C259.81 378.77 267.06 383.04 272.62 384.63C273.468 384.874 274.235 385.344 274.839 385.988C275.443 386.632 275.861 387.428 276.05 388.29C276.045 388.32 276.045 388.35 276.05 388.38C275.943 388.855 275.778 389.315 275.56 389.75Z" fill="#455A64"/>
<path d="M249.63 386.33C252.63 386.27 256.06 389.44 258.81 390.57C261.523 391.813 264.442 392.548 267.42 392.74C268.91 392.828 270.403 392.607 271.803 392.091C273.204 391.574 274.483 390.774 275.56 389.74C275.778 389.292 275.939 388.818 276.04 388.33C276.035 388.3 276.035 388.27 276.04 388.24C276.17 388.85 276.17 389.48 276.04 390.09C275.939 390.578 275.778 391.052 275.56 391.5C274.482 392.532 273.203 393.331 271.802 393.847C270.402 394.363 268.91 394.586 267.42 394.5C264.441 394.305 261.523 393.566 258.81 392.32C256.06 391.19 252.6 388.03 249.63 388.08C246.766 388.112 243.902 387.948 241.06 387.59C240.99 386.97 240.95 386.35 240.92 385.73C243.809 386.105 246.717 386.306 249.63 386.33Z" fill="#263238"/>
<path d="M210.41 391.05C210.401 392.467 210.539 393.881 210.82 395.27C211.268 397.737 212.651 399.937 214.68 401.41C216.546 402.465 218.656 403.013 220.8 403C222.687 403.205 224.595 403.008 226.4 402.42C227.765 401.93 228.923 400.988 229.68 399.75C229.68 399.75 229.68 399.75 229.68 399.82C229.416 400.731 228.935 401.564 228.278 402.249C227.622 402.933 226.809 403.448 225.91 403.75C224.104 404.33 222.196 404.524 220.31 404.32C218.163 404.32 216.053 403.758 214.19 402.69C212.163 401.216 210.784 399.016 210.34 396.55C210.05 395.166 209.91 393.754 209.92 392.34C209.912 391.372 209.707 390.415 209.319 389.528C208.93 388.642 208.366 387.843 207.66 387.18C207.309 386.864 206.976 386.531 206.66 386.18C206.444 385.928 206.279 385.636 206.176 385.32C206.073 385.004 206.034 384.671 206.06 384.34C206.06 384.08 206.06 383.82 206.14 383.57C206.65 384.17 207.85 385.57 208.14 385.87C208.852 386.533 209.42 387.334 209.811 388.225C210.201 389.116 210.405 390.077 210.41 391.05Z" fill="#263238"/>
<path d="M221 376.37C220.543 379.262 220.922 382.225 222.09 384.91C223.251 387.584 224.771 390.087 226.61 392.35C227.516 393.42 228.317 394.576 229 395.8C229.669 397.019 229.908 398.428 229.68 399.8C228.923 401.038 227.765 401.98 226.4 402.47C224.595 403.058 222.687 403.255 220.8 403.05C218.653 403.051 216.542 402.489 214.68 401.42C212.651 399.947 211.268 397.747 210.82 395.28C210.539 393.891 210.401 392.477 210.41 391.06C210.402 390.093 210.198 389.138 209.809 388.253C209.421 387.367 208.856 386.57 208.15 385.91C207.84 385.63 206.64 384.21 206.15 383.61C206.426 381.489 207.134 379.447 208.23 377.61L221 376.37Z" fill="#455A64"/>
<path d="M262.07 239.15L260.92 318.39L257.18 373.86C247.71 379.86 237.26 373.95 237.26 373.95C237.26 344.61 236.26 336.89 236.94 321.25L236.13 277.73L231.55 323.21L222.49 377.63C212.78 383.92 203.49 376.37 203.49 376.37C203.49 356.23 203.29 332.93 207.21 315.96C209.06 298.61 205.63 278.07 206.85 265.52C208.62 247.33 212.3 239.96 212.3 239.96L262.07 239.15Z" fill="#37474F"/>
<path opacity="0.3" d="M236.73 270.6L236.13 277.73L236.56 300.82L239.47 274.24C241.899 273.34 244.119 271.954 245.995 270.168C247.87 268.382 249.362 266.232 250.38 263.85C244.87 267.89 236.73 270.6 236.73 270.6Z" fill="black"/>
<path d="M244.08 169.94L253.34 170.94C260.93 177.64 264.85 191.67 263.22 207.18C262.213 217.815 261.829 228.5 262.07 239.18C241.51 254.18 215.56 243.26 212.29 239.99L213.82 220.99C214.001 218.853 213.657 216.704 212.82 214.73C210.88 210.22 207.41 201.35 206.95 194.47C206.667 188.343 207.958 182.246 210.7 176.76L224.17 170.88L244.08 169.94Z" fill="#F5F5F5"/>
<path opacity="0.1" d="M212.78 214.69C211.07 210.69 208.18 203.37 207.2 196.97C209.11 198.12 211.13 199.26 211.92 201.16C214.457 207.296 215.122 214.047 213.83 220.56C213.929 218.549 213.57 216.542 212.78 214.69Z" fill="black"/>
<path d="M246.65 183.45C254.4 201.28 254.28 219.64 254.28 219.64L250.47 227.85L244.47 220.01C244.926 208.006 244.686 195.986 243.75 184.01L246.65 183.45Z" fill="#FF671F" fill-opacity="0.85"/>
<path d="M247 176.72C247.16 178.968 247.05 181.228 246.67 183.45C245.777 183.888 244.78 184.071 243.79 183.98C241.966 182.368 240.404 180.482 239.16 178.39L243.79 176.72H247Z" fill="#FF671F" fill-opacity="0.85"/>
<path d="M243.77 176.72C239.77 178.19 236.23 185.29 236.23 185.29C225.76 176.39 224.13 170.84 224.13 170.84C226.82 167.01 229.76 166.4 229.76 166.4L243.77 176.72Z" fill="#E0E0E0"/>
<path d="M243.77 176.72C246.77 176.8 249.51 181.04 249.51 181.04C250 173.62 243.77 167.9 243.77 167.9V176.72Z" fill="#E0E0E0"/>
<path d="M229.51 158.08L243.77 163.17V168.45C240.576 167.989 237.512 166.872 234.77 165.17C232.29 163.444 230.442 160.954 229.51 158.08Z" fill="#F28F8F"/>
<path d="M229.51 158.08C230.432 160.949 232.265 163.438 234.73 165.17C237.472 166.872 240.536 167.989 243.73 168.45V176.72C243.73 176.72 228.66 169.94 228.66 166.72V157.72L229.51 158.08Z" fill="#FFA8A7"/>
<path d="M257 137.17C258.583 137.224 260.15 136.841 261.529 136.063C262.909 135.285 264.047 134.142 264.82 132.76C264.919 132.561 264.961 132.339 264.94 132.118C264.92 131.897 264.837 131.686 264.703 131.509C264.569 131.332 264.388 131.196 264.181 131.117C263.973 131.038 263.748 131.018 263.53 131.06C262.439 131.255 261.321 131.255 260.23 131.06C261.489 129.417 262.408 127.54 262.935 125.538C263.462 123.536 263.586 121.45 263.3 119.4C263.265 119.172 263.178 118.955 263.044 118.767C262.91 118.579 262.733 118.425 262.529 118.318C262.324 118.211 262.097 118.153 261.866 118.15C261.636 118.147 261.407 118.198 261.2 118.3C256.667 120.564 251.618 121.599 246.56 121.3C243.86 121.11 241.21 120.54 238.56 120.3C235.866 119.972 233.135 120.387 230.66 121.5C229.435 122.077 228.387 122.972 227.627 124.093C226.867 125.214 226.423 126.518 226.34 127.87C226.034 127.433 225.637 127.068 225.176 126.801C224.715 126.533 224.201 126.369 223.67 126.32C223.116 126.253 222.555 126.299 222.02 126.458C221.485 126.616 220.988 126.882 220.56 127.24L225.19 129.82C223.6 129.25 221.59 130.49 220.79 131.99C220.112 133.565 219.82 135.279 219.94 136.99C219.845 139.241 219.945 141.496 220.24 143.73C220.543 145.971 221.425 148.094 222.8 149.89C224.001 151.37 225.611 152.462 227.43 153.03C229.903 153.716 232.526 153.632 234.95 152.79C237.36 151.947 239.655 150.805 241.78 149.39C247.213 145.786 252.307 141.696 257 137.17Z" fill="#263238"/>
<path d="M257.32 132.69C258.864 142.011 257.827 151.577 254.32 160.35C253.51 162.35 252.46 164.47 250.56 165.56C248.66 166.65 246.11 166.46 243.85 166.11C240.177 165.693 236.597 164.68 233.25 163.11C229.882 161.517 227.257 158.688 225.92 155.21C224.721 155.454 223.477 155.347 222.337 154.899C221.198 154.452 220.213 153.685 219.5 152.69C218.097 150.629 217.367 148.183 217.41 145.69C217.41 144.1 217.71 142.22 219.13 141.53C220.55 140.84 222.05 141.6 223.2 142.53C225.111 144.078 226.506 146.17 227.2 148.53C228.25 144.66 229.88 140.93 230.93 137.06C231.34 135.54 231.85 133.88 233.18 133.06C234.8 132.06 236.92 132.62 238.79 133.06C244.897 134.517 251.276 134.39 257.32 132.69Z" fill="#FFA8A7"/>
<path d="M246.05 144.42L250.57 152.03L245.18 153.05L246.05 144.42Z" fill="#F28F8F"/>
<path d="M240 155.67L244.1 157.67C243.748 158.136 243.255 158.474 242.694 158.635C242.133 158.795 241.535 158.769 240.99 158.56C240.518 158.266 240.162 157.817 239.981 157.291C239.801 156.765 239.808 156.192 240 155.67Z" fill="#F28F8F"/>
<path opacity="0.3" d="M240 155.67L244.1 157.67C243.748 158.136 243.255 158.474 242.694 158.635C242.133 158.795 241.535 158.769 240.99 158.56C240.518 158.266 240.162 157.817 239.981 157.291C239.801 156.765 239.808 156.192 240 155.67Z" fill="black"/>
<path d="M242.39 158.68C241.914 158.78 241.42 158.734 240.97 158.55C240.594 158.339 240.29 158.021 240.096 157.636C239.902 157.251 239.827 156.818 239.88 156.39C240.511 156.381 241.122 156.612 241.589 157.038C242.055 157.463 242.342 158.051 242.39 158.68Z" fill="#F28F8F"/>
<path d="M238.24 144.73C238.21 145.035 238.271 145.342 238.415 145.612C238.559 145.882 238.781 146.104 239.051 146.248C239.321 146.393 239.627 146.454 239.932 146.425C240.237 146.395 240.527 146.276 240.764 146.082C241.001 145.888 241.175 145.628 241.265 145.335C241.354 145.042 241.355 144.729 241.267 144.436C241.179 144.143 241.006 143.882 240.77 143.687C240.533 143.492 240.245 143.371 239.94 143.34C239.737 143.317 239.53 143.334 239.334 143.392C239.137 143.449 238.955 143.546 238.796 143.675C238.637 143.805 238.507 143.965 238.411 144.146C238.316 144.327 238.257 144.526 238.24 144.73Z" fill="#263238"/>
<path d="M251.22 145.53C251.188 145.835 251.247 146.143 251.39 146.414C251.533 146.685 251.753 146.908 252.023 147.055C252.292 147.201 252.599 147.264 252.905 147.235C253.21 147.207 253.5 147.089 253.738 146.895C253.976 146.702 254.152 146.442 254.242 146.149C254.333 145.856 254.335 145.543 254.247 145.249C254.159 144.955 253.986 144.694 253.75 144.498C253.514 144.303 253.225 144.181 252.92 144.15C252.512 144.111 252.105 144.233 251.787 144.492C251.469 144.75 251.265 145.123 251.22 145.53Z" fill="#263238"/>
<path d="M253.34 139.55L256.52 142.26C256.711 141.851 256.773 141.393 256.696 140.947C256.619 140.502 256.408 140.091 256.09 139.77C255.698 139.48 255.232 139.306 254.746 139.267C254.26 139.228 253.773 139.326 253.34 139.55Z" fill="#263238"/>
<path d="M240.17 138L236.51 140C236.407 139.561 236.439 139.101 236.604 138.682C236.768 138.262 237.056 137.902 237.43 137.65C237.874 137.447 238.366 137.373 238.85 137.435C239.334 137.496 239.791 137.692 240.17 138Z" fill="#263238"/>
<path opacity="0.3" d="M256.09 265.52C255.61 300.19 257.15 314.52 257.15 314.52L253.71 365L258.22 314.48L256.09 265.52Z" fill="black"/>
<path opacity="0.3" d="M228.49 269.27C225.79 303.84 226.15 318.18 226.15 318.18L219.74 368.44L227.48 318.31L228.49 269.27Z" fill="black"/>
<path d="M264.45 248.4C264.45 248.4 263.69 239.02 263.58 234.04C262.31 203.79 270.42 183.45 253.34 170.92L248.58 170.42C247.329 169.441 245.872 168.758 244.32 168.42C244.86 168.97 245.59 169.91 245.59 169.91C250.59 175.81 251.77 190.1 249.85 205.81C249.85 205.81 229.51 185.96 227.35 167.54L226.59 168.1C225.597 168.83 224.761 169.751 224.13 170.81L210.66 176.69C210.66 176.69 206.75 184.87 207.2 192.27C207.65 199.67 211.51 207.83 211.92 219.16C212.33 230.49 207.22 236.92 206.45 255.62C217.13 262.37 234.91 261.26 248.05 257.48C249.01 254.033 249.973 250.59 250.94 247.15C251.26 250.15 251.66 253.15 252.01 256.21C258.39 254 263.13 251.1 264.45 248.4Z" fill="#455A64"/>
<path opacity="0.2" d="M249 208.8C249 208.8 234.24 203.7 225 196.31C224.792 196.142 224.622 195.932 224.501 195.693C224.379 195.455 224.31 195.193 224.297 194.926C224.284 194.659 224.327 194.392 224.424 194.143C224.521 193.894 224.67 193.668 224.86 193.48L230.4 188L224.31 188.69C224.023 188.721 223.734 188.687 223.462 188.59C223.191 188.493 222.945 188.335 222.744 188.129C222.543 187.923 222.391 187.673 222.3 187.4C222.209 187.126 222.182 186.836 222.22 186.55L224.13 171.7L221.3 187.52C221.245 187.825 221.266 188.138 221.359 188.433C221.453 188.728 221.618 188.995 221.839 189.212C222.059 189.429 222.33 189.588 222.626 189.677C222.923 189.765 223.236 189.78 223.54 189.72L228.7 188.72L223.3 193.84C223.111 194.018 222.96 194.232 222.857 194.47C222.754 194.709 222.701 194.965 222.701 195.225C222.701 195.485 222.754 195.741 222.857 195.98C222.96 196.218 223.111 196.432 223.3 196.61C232.33 204.85 249 208.8 249 208.8Z" fill="black"/>
<path opacity="0.2" d="M252.33 206.15C252.33 206.15 257.45 198.1 258.86 189.95C258.901 189.52 258.814 189.087 258.609 188.706C258.404 188.325 258.091 188.013 257.71 187.81L252.59 185.34L255.9 184.08C256.57 183.83 256.63 182.76 256.02 181.9L248.67 171.46L256.9 182.35C257.58 183.26 257.5 184.44 256.73 184.63L253.73 185.35L258.62 187.59C258.985 187.779 259.291 188.066 259.501 188.42C259.711 188.773 259.818 189.179 259.81 189.59C258.91 198.39 252.33 206.15 252.33 206.15Z" fill="black"/>
<path opacity="0.2" d="M210.16 187.87L207.54 186.87C207.222 188.671 207.108 190.503 207.2 192.33C207.64 199.74 211.51 207.89 211.92 219.22C211.97 220.39 211.92 221.5 211.92 222.58C213.999 216.978 214.915 211.011 214.612 205.044C214.31 199.076 212.795 193.233 210.16 187.87Z" fill="black"/>
<path d="M179.91 208.34C174.41 210.95 172.31 219.5 175.91 224.18C186 223 183.85 212.22 179.91 208.34Z" fill="#455A64"/>
<path opacity="0.3" d="M179.91 208.34C174.41 210.95 172.31 219.5 175.91 224.18C186 223 183.85 212.22 179.91 208.34Z" fill="black"/>
<path d="M179.16 210.18L174.24 207.75C172.713 206.991 171.441 205.802 170.58 204.33L169 201.69C167.935 199.885 166.368 198.429 164.49 197.5C161.677 196.104 159.053 194.357 156.68 192.3C156.178 193.093 155.967 194.036 156.081 194.968C156.196 195.899 156.63 196.762 157.31 197.41C158.314 198.342 159.383 199.201 160.51 199.98L158.15 200.58C156.448 201.011 154.655 200.899 153.02 200.26L146.28 197.64C146.087 197.564 145.877 197.541 145.672 197.573C145.466 197.605 145.274 197.692 145.113 197.823C144.952 197.954 144.829 198.126 144.756 198.32C144.684 198.515 144.664 198.725 144.7 198.93C145.322 201.92 146.452 204.782 148.04 207.39C148.771 208.636 149.76 209.71 150.942 210.54C152.124 211.369 153.47 211.936 154.89 212.2C158.33 212.85 161.66 213.35 163.55 213.62C164.638 213.78 165.692 214.117 166.67 214.62L173.9 218.21L179.16 210.18Z" fill="#FFA8A7"/>
<path d="M183.84 217.75C184.701 215.73 185.001 213.516 184.71 211.34L193.93 215.73C195.607 208.993 196.916 202.17 197.85 195.29C198.95 185.99 198.7 179.74 210.66 176.72L211.92 201.16C211.92 201.16 210.46 231.03 201.92 234.33C194.82 237.07 189.82 230.33 179 223.33C181.15 222.013 182.84 220.064 183.84 217.75Z" fill="#F5F5F5"/>
<path opacity="0.1" d="M200.13 221.85C199.81 220.46 197.52 217.28 193.93 215.73C193.93 215.73 194.2 214.65 194.61 212.89C196.47 213.8 201.05 216.62 200.13 221.85Z" fill="black"/>
<path d="M176.21 208.34L184.71 211.34C185.033 213.682 184.661 216.068 183.64 218.201C182.62 220.334 180.996 222.121 178.97 223.34C176.488 221.642 174.132 219.767 171.92 217.73C171.92 217.73 175.6 216.41 176.21 208.34Z" fill="#F5F5F5"/>
<path d="M165.37 208.28C164.598 208.099 163.869 207.767 163.226 207.303C162.583 206.839 162.038 206.252 161.623 205.575C161.209 204.899 160.932 204.148 160.81 203.364C160.687 202.58 160.721 201.78 160.91 201.01C160.439 201.633 160.131 202.363 160.012 203.134C159.893 203.906 159.968 204.695 160.23 205.43C160.515 206.144 160.975 206.776 161.567 207.267C162.159 207.758 162.865 208.092 163.62 208.24C164.201 208.308 164.787 208.322 165.37 208.28Z" fill="#F28F8F"/>
<path d="M210.66 176.72L207.1 177.85C204.248 178.764 201.748 180.535 199.941 182.923C198.133 185.31 197.106 188.197 197 191.19C196.953 193.927 196.689 196.655 196.21 199.35C195.06 204.47 193.41 214.53 193.41 214.53L179.9 208.34C182.75 215.83 178.9 222.2 175.9 224.18L195.33 234.85C196.266 235.362 197.298 235.673 198.361 235.762C199.425 235.851 200.495 235.717 201.503 235.367C202.511 235.018 203.434 234.461 204.214 233.733C204.994 233.005 205.612 232.122 206.03 231.14C209.815 221.873 211.918 212.005 212.24 202C212.139 193.552 211.612 185.115 210.66 176.72Z" fill="#455A64"/>
<path opacity="0.2" d="M199.55 220.56C201.64 213.16 196.55 211.47 194 211.08C193.65 213.08 193.42 214.53 193.42 214.53C194.884 214.902 196.223 215.657 197.3 216.716C198.377 217.776 199.154 219.102 199.55 220.56Z" fill="black"/>
<path d="M251.8 213.89C252.73 213.35 253.49 213.78 253.49 214.89C253.463 215.472 253.297 216.038 253.007 216.543C252.716 217.047 252.309 217.475 251.82 217.79C250.89 218.33 250.13 217.9 250.13 216.79C250.157 216.208 250.323 215.642 250.613 215.137C250.904 214.633 251.311 214.205 251.8 213.89Z" fill="#FF671F" fill-opacity="0.85"/>
<path opacity="0.2" d="M251.8 213.89C252.73 213.35 253.49 213.78 253.49 214.89C253.463 215.472 253.297 216.038 253.007 216.543C252.716 217.047 252.309 217.475 251.82 217.79C250.89 218.33 250.13 217.9 250.13 216.79C250.157 216.208 250.323 215.642 250.613 215.137C250.904 214.633 251.311 214.205 251.8 213.89Z" fill="black"/>
<path d="M251.8 224.57C252.73 224.03 253.49 224.46 253.49 225.57C253.462 226.153 253.296 226.72 253.006 227.226C252.716 227.732 252.309 228.162 251.82 228.48C250.89 229.01 250.13 228.59 250.13 227.48C250.158 226.897 250.324 226.33 250.614 225.824C250.904 225.318 251.311 224.888 251.8 224.57Z" fill="#FF671F" fill-opacity="0.85"/>
<path opacity="0.2" d="M251.8 224.57C252.73 224.03 253.49 224.46 253.49 225.57C253.462 226.153 253.296 226.72 253.006 227.226C252.716 227.732 252.309 228.162 251.82 228.48C250.89 229.01 250.13 228.59 250.13 227.48C250.158 226.897 250.324 226.33 250.614 225.824C250.904 225.318 251.311 224.888 251.8 224.57Z" fill="black"/>
<path d="M251.8 235.25C252.73 234.72 253.49 235.15 253.49 236.25C253.462 236.831 253.296 237.398 253.006 237.902C252.715 238.406 252.309 238.834 251.82 239.15C250.89 239.69 250.13 239.26 250.13 238.15C250.159 237.569 250.326 237.003 250.616 236.499C250.907 235.995 251.312 235.567 251.8 235.25Z" fill="#FF671F" fill-opacity="0.85"/>
<path opacity="0.2" d="M251.8 235.25C252.73 234.72 253.49 235.15 253.49 236.25C253.462 236.831 253.296 237.398 253.006 237.902C252.715 238.406 252.309 238.834 251.82 239.15C250.89 239.69 250.13 239.26 250.13 238.15C250.159 237.569 250.326 237.003 250.616 236.499C250.907 235.995 251.312 235.567 251.8 235.25Z" fill="black"/>
<path d="M229.66 208.27L234.31 220.85L233.03 220.94L228.7 209.21L229.66 208.27Z" fill="#FF671F" fill-opacity="0.85"/>
<path d="M228.7 209.21L233.03 220.94L231.32 221.06L230.45 223.47L226.11 211.74L228.7 209.21Z" fill="#FF671F" fill-opacity="0.85"/>
<path d="M226.11 211.74L230.45 223.47L229.8 225.26L225.15 212.68L226.11 211.74Z" fill="#FF671F" fill-opacity="0.85"/>
<g opacity="0.2">
<path d="M229.66 208.27L234.31 220.85L233.03 220.94L228.7 209.21L229.66 208.27Z" fill="white"/>
</g>
<g opacity="0.3">
<path d="M228.7 209.21L233.03 220.94L231.32 221.06L230.45 223.47L226.11 211.74L228.7 209.21Z" fill="black"/>
</g>
<g opacity="0.2">
<path d="M226.11 211.74L230.45 223.47L229.8 225.26L225.15 212.68L226.11 211.74Z" fill="white"/>
</g>
<path d="M228.3 207.58L229.27 207.41L224.7 225.32L224.05 224.27L228.3 207.58Z" fill="#FF671F" fill-opacity="0.85"/>
<path d="M224.75 208.22L225.71 208.04L221.46 224.73L220.18 226.12L224.75 208.22Z" fill="#FF671F" fill-opacity="0.85"/>
<path d="M225.71 208.04L228.3 207.58L224.05 224.27L223.17 222.88L221.46 224.73L225.71 208.04Z" fill="#FF671F" fill-opacity="0.85"/>
<path opacity="0.2" d="M228.3 207.58L229.27 207.41L224.7 225.32L224.05 224.27L228.3 207.58Z" fill="white"/>
<path opacity="0.2" d="M224.75 208.22L225.71 208.04L221.46 224.73L220.18 226.12L224.75 208.22Z" fill="white"/>
<path opacity="0.3" d="M225.71 208.04L228.3 207.58L224.05 224.27L223.17 222.88L221.46 224.73L225.71 208.04Z" fill="black"/>
<path d="M233.71 202.81L234.51 201.17L233.71 200.45L234.15 198.79L227.23 205.37L222.93 201.07L222.58 202.72L221.32 203.86L221.38 205.32L220.3 206.78L220.75 207.93L219.95 209.58L220.75 210.29L220.31 211.96L221.39 212.17L221.35 213.69L222.61 213.38L222.97 214.61L224.27 213.81L225 214.63L226.22 213.41L227.25 213.74L228.28 212.22L229.5 212.03L230.22 210.37L231.53 209.67L231.88 208.02L233.13 206.89L233.08 205.42L234.16 203.96L233.71 202.81Z" fill="#FF671F" fill-opacity="0.85"/>
<path d="M233.06 198.58L233.1 197.06L231.85 197.36L231.49 196.13L230.19 196.94L229.46 196.12L228.23 197.33L227.2 197L226.18 198.52L224.96 198.72L224.23 200.37L222.93 201.07L227.23 205.37L234.15 198.79L233.06 198.58Z" fill="#FF671F" fill-opacity="0.85"/>
<g opacity="0.2">
<path d="M227.23 205.37L225 214.63L224.27 213.81L222.97 214.61L227.23 205.37Z" fill="black"/>
</g>
<g opacity="0.2">
<path d="M227.23 205.37L233.13 206.89L231.88 208.02L231.53 209.67L227.23 205.37Z" fill="black"/>
</g>
<g opacity="0.2">
<path d="M227.23 205.37L229.5 212.03L228.28 212.22L227.25 213.74L227.23 205.37Z" fill="black"/>
</g>
<g opacity="0.2">
<path d="M234.51 201.17L233.71 202.81L234.16 203.96L227.23 205.37L234.51 201.17Z" fill="black"/>
</g>
<g opacity="0.2">
<path d="M233.06 198.58L234.15 198.79L227.23 205.37L233.1 197.06L233.06 198.58Z" fill="black"/>
</g>
<g opacity="0.2">
<path d="M227.23 205.37L221.35 213.69L221.39 212.17L220.31 211.96L227.23 205.37Z" fill="black"/>
</g>
<g opacity="0.2">
<path d="M230.19 196.94L231.49 196.13L227.23 205.37L229.46 196.12L230.19 196.94Z" fill="black"/>
</g>
<g opacity="0.2">
<path d="M220.3 206.78L227.23 205.37L219.95 209.58L220.75 207.93L220.3 206.78Z" fill="black"/>
</g>
<g opacity="0.2">
<path d="M226.18 198.52L227.2 197L227.23 205.37L224.96 198.72L226.18 198.52Z" fill="black"/>
</g>
<g opacity="0.2">
<path d="M222.93 201.07L227.23 205.37L221.32 203.86L222.58 202.72L222.93 201.07Z" fill="black"/>
</g>
<path d="M227.22 201.27C229.22 200.13 230.79 201.05 230.8 203.27C230.733 204.504 230.375 205.706 229.757 206.776C229.138 207.846 228.276 208.756 227.24 209.43C225.24 210.57 223.67 209.66 223.66 207.43C223.726 206.195 224.082 204.993 224.701 203.923C225.32 202.852 226.183 201.943 227.22 201.27Z" fill="#FF671F" fill-opacity="0.85"/>
<path d="M227.21 199.54C230.01 197.92 232.3 199.22 232.31 202.44C232.217 204.198 231.709 205.909 230.827 207.433C229.946 208.958 228.717 210.252 227.24 211.21C224.44 212.82 222.16 211.53 222.15 208.31C222.242 206.553 222.749 204.842 223.628 203.318C224.508 201.794 225.735 200.499 227.21 199.54ZM227.21 209.47C228.246 208.796 229.108 207.886 229.727 206.816C230.345 205.746 230.703 204.544 230.77 203.31C230.77 201.05 229.16 200.13 227.19 201.31C226.153 201.983 225.29 202.892 224.671 203.963C224.052 205.034 223.696 206.235 223.63 207.47C223.63 209.74 225.24 210.65 227.21 209.47Z" fill="#FF671F" fill-opacity="0.85"/>
<g opacity="0.1">
<path d="M227.22 201.27C229.22 200.13 230.79 201.05 230.8 203.27C230.733 204.504 230.375 205.706 229.757 206.776C229.138 207.846 228.276 208.756 227.24 209.43C225.24 210.57 223.67 209.66 223.66 207.43C223.726 206.195 224.082 204.993 224.701 203.923C225.32 202.852 226.183 201.943 227.22 201.27Z" fill="white"/>
</g>
<g opacity="0.3">
<path d="M227.21 199.54C230.01 197.92 232.3 199.22 232.31 202.44C232.217 204.198 231.709 205.909 230.827 207.433C229.946 208.958 228.717 210.252 227.24 211.21C224.44 212.82 222.16 211.53 222.15 208.31C222.242 206.553 222.749 204.842 223.628 203.318C224.508 201.794 225.735 200.499 227.21 199.54ZM227.21 209.47C228.246 208.796 229.108 207.886 229.727 206.816C230.345 205.746 230.703 204.544 230.77 203.31C230.77 201.05 229.16 200.13 227.19 201.31C226.153 201.983 225.29 202.892 224.671 203.963C224.052 205.034 223.696 206.235 223.63 207.47C223.63 209.74 225.24 210.65 227.21 209.47Z" fill="white"/>
</g>
<path d="M366.19 269.05L320.11 241.97L240.46 287.44L286.53 314.52L366.19 269.05Z" fill="#FF671F" fill-opacity="0.85"/>
<path d="M240.46 287.44L240.06 422.81L286.14 449.89L286.53 314.52L240.46 287.44Z" fill="#FF671F" fill-opacity="0.85"/>
<path d="M366.19 269.05L286.53 314.52L286.14 449.89L365.79 404.42L366.19 269.05Z" fill="#FF671F" fill-opacity="0.85"/>
<path opacity="0.3" d="M240.46 287.44L240.06 422.81L286.14 449.89L286.53 314.52L240.46 287.44Z" fill="black"/>
<path opacity="0.2" d="M366.19 269.05L286.53 314.52L286.14 449.89L365.79 404.42L366.19 269.05Z" fill="black"/>
<g opacity="0.2">
<path opacity="0.3" d="M347.26 301L347.47 374.3C347.47 386.07 339.19 400.47 328.95 406.38C318.71 412.29 310.34 407.53 310.31 395.76L310.1 322.46L347.26 301Z" fill="white"/>
<path d="M307.76 321.11L349.57 297L349.79 373C349.79 386.25 340.48 402.44 328.96 409.1C317.44 415.76 308.02 410.39 307.96 397.1L307.76 321.11ZM347.47 374.28L347.26 300.98L310.1 322.44L310.31 395.74C310.31 407.51 318.7 412.28 328.95 406.36C339.2 400.44 347.5 386.05 347.47 374.28Z" fill="black"/>
</g>
<path d="M400.16 261.77L329.18 220.05L206.45 290.12L277.43 331.83L400.16 261.77Z" fill="#FF671F" fill-opacity="0.85"/>
<path opacity="0.1" d="M400.16 261.77L329.18 220.05L206.45 290.12L277.43 331.83L400.16 261.77Z" fill="white"/>
<path d="M206.45 290.12L206.43 298.82L277.42 340.53L277.43 331.83L206.45 290.12Z" fill="#FF671F" fill-opacity="0.85"/>
<path opacity="0.2" d="M206.45 290.12L206.43 298.82L277.42 340.53L277.43 331.83L206.45 290.12Z" fill="black"/>
<path d="M400.16 261.77L277.43 331.83L277.42 340.53L400.15 270.47L400.16 261.77Z" fill="#FF671F" fill-opacity="0.85"/>
<path opacity="0.1" d="M400.16 261.77L277.43 331.83L277.42 340.53L400.15 270.47L400.16 261.77Z" fill="black"/>
<path d="M320.66 266.79C320.66 268.33 319.66 269.86 317.66 271.02C315.389 272.176 312.876 272.776 310.328 272.773C307.779 272.769 305.268 272.162 303 271C301 269.82 300 268.28 300 266.74V270.55C300 272.09 301 273.63 303 274.81C305.264 275.979 307.773 276.595 310.32 276.609C312.868 276.623 315.383 276.034 317.66 274.89C319.66 273.72 320.66 272.19 320.66 270.65V266.84V266.79Z" fill="#263238"/>
<path d="M303 271C305.264 272.17 307.773 272.786 310.322 272.798C312.87 272.81 315.385 272.218 317.66 271.07C319.66 269.91 320.66 268.38 320.66 266.84C320.66 265.3 319.66 263.77 317.66 262.58C315.394 261.416 312.886 260.803 310.338 260.791C307.791 260.778 305.277 261.368 303 262.51C301.07 263.62 300.06 265.06 300 266.51C300 266.59 300 266.66 300 266.73C299.94 268.23 300.94 269.77 303 271Z" fill="#455A64"/>
<path d="M295.26 210.42C295.247 210.391 295.23 210.364 295.21 210.34C295.084 210.161 294.947 209.991 294.8 209.83C294.148 209.167 293.258 208.79 292.328 208.783C291.398 208.775 290.503 209.138 289.84 209.79C289.177 210.442 288.8 211.332 288.793 212.262C288.785 213.192 289.148 214.087 289.8 214.75C291.388 216.098 293.107 217.283 294.93 218.29L297.31 216.38C297.033 214.276 296.336 212.249 295.26 210.42Z" fill="#263238"/>
<path d="M311.85 246.66C311.876 238.767 309.194 231.103 304.25 224.95L297.35 216.38C297.049 216.294 296.73 216.295 296.43 216.381C296.129 216.468 295.859 216.637 295.65 216.87C295.432 217.036 295.257 217.251 295.139 217.498C295.021 217.745 294.963 218.016 294.97 218.29L301.88 226.86C306.379 232.473 308.821 239.457 308.8 246.65L308.7 266.65C308.71 266.785 308.756 266.915 308.833 267.026C308.911 267.137 309.017 267.224 309.14 267.28C309.476 267.453 309.848 267.543 310.225 267.543C310.602 267.543 310.974 267.453 311.31 267.28C311.434 267.227 311.541 267.141 311.62 267.032C311.699 266.923 311.748 266.794 311.76 266.66L311.85 246.66Z" fill="#37474F"/>
<path d="M347.56 299.92V301.2C347.56 306.76 343.66 313.54 338.83 316.33C334 319.12 330.04 316.88 330.03 311.33V310.06L347.56 299.92Z" fill="white"/>
<path d="M330 310.05V311.32C330 316.88 326.1 323.66 321.26 326.46C316.42 329.26 312.48 327.01 312.46 321.46V320.19L330 310.05Z" fill="#FF671F" fill-opacity="0.85"/>
<path d="M312.49 320.17V321.44C312.49 327.01 308.6 333.78 303.76 336.58C298.92 339.38 294.98 337.13 294.96 331.58V330.3L312.49 320.17Z" fill="white"/>
<path d="M295 330.3V331.57C295 337.13 291.1 343.91 286.26 346.7C281.42 349.49 277.49 347.25 277.47 341.7V340.43L295 330.3Z" fill="#FF671F" fill-opacity="0.85"/>
<path d="M365.09 289.8V291.07C365.09 296.64 361.2 303.41 356.36 306.21C351.52 309.01 347.58 306.76 347.56 301.21V299.93L365.09 289.8Z" fill="#FF671F" fill-opacity="0.85"/>
<path d="M400.16 269.56V270.83C400.16 276.39 396.27 283.17 391.43 285.96C386.59 288.75 382.64 286.52 382.63 280.96V279.69L400.16 269.56Z" fill="#FF671F" fill-opacity="0.85"/>
<path d="M382.63 279.68V281C382.63 286.57 378.73 293.34 373.89 296.14C369.05 298.94 365.11 296.69 365.09 291.14V289.8L382.63 279.68Z" fill="white"/>
<g opacity="0.3">
<path d="M330 310.05V311.32C330 316.88 326.1 323.66 321.26 326.46C316.42 329.26 312.48 327.01 312.46 321.46V320.19L330 310.05Z" fill="white"/>
</g>
<g opacity="0.3">
<path d="M295 330.3V331.57C295 337.13 291.1 343.91 286.26 346.7C281.42 349.49 277.49 347.25 277.47 341.7V340.43L295 330.3Z" fill="white"/>
</g>
<g opacity="0.3">
<path d="M365.09 289.8V291.07C365.09 296.64 361.2 303.41 356.36 306.21C351.52 309.01 347.58 306.76 347.56 301.21V299.93L365.09 289.8Z" fill="white"/>
</g>
<g opacity="0.3">
<path d="M400.16 269.56V270.83C400.16 276.39 396.27 283.17 391.43 285.96C386.59 288.75 382.64 286.52 382.63 280.96V279.69L400.16 269.56Z" fill="white"/>
</g>
<path d="M347.26 301L347.47 374.3C347.47 386.07 339.19 400.47 328.95 406.38C318.71 412.29 310.34 407.53 310.31 395.76L310.1 322.46L347.26 301Z" fill="#FF671F" fill-opacity="0.85"/>
<path d="M307.76 321.11L349.57 297L349.79 373C349.79 386.25 340.48 402.44 328.96 409.1C317.44 415.76 308.02 410.39 307.96 397.1L307.76 321.11ZM347.47 374.28L347.26 300.98L310.1 322.44L310.31 395.74C310.31 407.51 318.7 412.28 328.95 406.36C339.2 400.44 347.5 386.05 347.47 374.28Z" fill="white"/>
<path d="M330.86 270.65L310.22 282.52L289.55 270.45L310.2 258.59L330.86 270.65Z" fill="#455A64"/>
<path d="M330.86 270.65L330.85 273.14L310.2 285L310.22 282.52L330.86 270.65Z" fill="#37474F"/>
<path d="M310.22 282.52L310.2 285L289.53 272.94L289.55 270.45L310.22 282.52Z" fill="#263238"/>
<path d="M295.24 99.84L334.62 77.25C338.07 75.25 346.23 77.95 346.23 83.5C346.231 83.051 346.114 82.6095 345.891 82.22C345.668 81.8304 345.346 81.5064 344.958 81.2804C344.57 81.0545 344.129 80.9346 343.68 80.9328C343.231 80.9309 342.79 81.0472 342.4 81.27L303 103.87C301.705 104.624 300.661 105.745 300 107.09L292.35 102.74C293.033 101.53 294.032 100.527 295.24 99.84Z" fill="#FF671F" fill-opacity="0.85"/>
<path d="M300 107.09C299.44 108.151 299.142 109.33 299.13 110.53V133.16C299.131 133.609 299.249 134.051 299.474 134.44C299.698 134.829 300.021 135.153 300.409 135.378C300.798 135.604 301.239 135.724 301.688 135.726C302.137 135.728 302.579 135.612 302.97 135.39C301.833 136.097 300.53 136.491 299.192 136.532C297.854 136.573 296.529 136.26 295.351 135.625C294.172 134.99 293.183 134.055 292.482 132.914C291.781 131.774 291.394 130.468 291.36 129.13V106.51C291.367 105.189 291.712 103.891 292.36 102.74L300 107.09Z" fill="#FF671F" fill-opacity="0.85"/>
<path opacity="0.4" d="M295.24 99.84L334.62 77.25C338.07 75.25 346.23 77.95 346.23 83.5C346.231 83.051 346.114 82.6095 345.891 82.22C345.668 81.8304 345.346 81.5064 344.958 81.2804C344.57 81.0545 344.129 80.9346 343.68 80.9328C343.231 80.9309 342.79 81.0472 342.4 81.27L303 103.87C301.705 104.624 300.661 105.745 300 107.09L292.35 102.74C293.033 101.53 294.032 100.527 295.24 99.84Z" fill="white"/>
<path opacity="0.2" d="M300 107.09C299.44 108.151 299.142 109.33 299.13 110.53V133.16C299.131 133.609 299.249 134.051 299.474 134.44C299.698 134.829 300.021 135.153 300.409 135.378C300.798 135.604 301.239 135.724 301.688 135.726C302.137 135.728 302.579 135.612 302.97 135.39C301.833 136.097 300.53 136.491 299.192 136.532C297.854 136.573 296.529 136.26 295.351 135.625C294.172 134.99 293.183 134.055 292.482 132.914C291.781 131.774 291.394 130.468 291.36 129.13V106.51C291.367 105.189 291.712 103.891 292.36 102.74L300 107.09Z" fill="white"/>
<path d="M342.4 81.27L303 103.87C301.829 104.544 300.856 105.514 300.178 106.683C299.5 107.852 299.143 109.179 299.14 110.53V133.16C299.141 133.609 299.259 134.051 299.484 134.44C299.708 134.829 300.031 135.153 300.419 135.378C300.808 135.604 301.249 135.724 301.698 135.726C302.147 135.728 302.589 135.612 302.98 135.39L342.35 112.89C343.526 112.216 344.503 111.243 345.183 110.07C345.862 108.897 346.22 107.566 346.22 106.21V83.5C346.22 83.0524 346.103 82.6126 345.88 82.2244C345.658 81.8362 345.337 81.5132 344.951 81.2876C344.564 81.062 344.125 80.9416 343.678 80.9385C343.23 80.9354 342.79 81.0497 342.4 81.27Z" fill="#FF671F" fill-opacity="0.85"/>
<path d="M289.67 125.46L299.14 127.23V115.09L289.35 124.34C289.26 124.422 289.195 124.526 289.162 124.643C289.129 124.759 289.129 124.883 289.163 124.999C289.196 125.116 289.261 125.221 289.351 125.302C289.44 125.383 289.551 125.438 289.67 125.46Z" fill="#FF671F" fill-opacity="0.85"/>
<path d="M299.14 115.09L291.38 110.63L281.59 120C281.524 120.07 281.474 120.154 281.444 120.246C281.414 120.338 281.405 120.435 281.417 120.531C281.43 120.627 281.463 120.718 281.516 120.8C281.568 120.881 281.638 120.949 281.72 121L289.46 125.34L299.14 115.09Z" fill="#FF671F" fill-opacity="0.85"/>
<path opacity="0.2" d="M299.14 115.09L291.38 110.63L281.59 120C281.524 120.07 281.474 120.154 281.444 120.246C281.414 120.338 281.405 120.435 281.417 120.531C281.43 120.627 281.463 120.718 281.516 120.8C281.568 120.881 281.638 120.949 281.72 121L289.46 125.34L299.14 115.09Z" fill="white"/>
<path d="M318.05 107.34C320.42 105.97 322.16 106.8 322.17 109.34C322.096 110.716 321.683 112.052 320.967 113.23C320.252 114.407 319.257 115.39 318.07 116.09C315.71 117.45 313.97 116.62 313.96 114.09C314.031 112.715 314.442 111.378 315.156 110.201C315.87 109.023 316.864 108.04 318.05 107.34ZM318.05 113.8C318.548 113.473 318.958 113.028 319.242 112.505C319.526 111.981 319.677 111.396 319.68 110.8C319.68 109.5 318.94 109.13 318.04 109.66C317.541 109.985 317.13 110.43 316.846 110.954C316.561 111.478 316.411 112.064 316.41 112.66C316.41 113.97 317.15 114.34 318.05 113.82" fill="white"/>
<path d="M314.1 109.81L311.05 119.95L308.64 121.34L305.53 114.75L308.18 113.23L309.92 117.11L311.69 111.2L314.1 109.81Z" fill="white"/>
<path d="M329.12 101.14V103.32L326.99 104.55L327.01 110.73L324.55 112.15L324.54 105.97L322.41 107.2L322.4 105.02L329.12 101.14Z" fill="white"/>
<path d="M335.67 97.36V99.48L332.17 101.5L332.18 102.48L335.25 100.7V102.74L332.18 104.51V105.61L335.82 103.52V105.64L329.78 109.13L329.76 100.77L335.67 97.36Z" fill="white"/>
<path d="M337.81 101.77C338.62 101.3 339.18 101.58 339.18 102.38C339.149 102.835 339.008 103.275 338.769 103.664C338.531 104.052 338.202 104.377 337.81 104.61C337 105.08 336.44 104.76 336.44 103.97C336.466 103.518 336.606 103.08 336.845 102.696C337.084 102.311 337.416 101.993 337.81 101.77Z" fill="white"/>
<path d="M338.74 100.75L336.87 101.83L336.39 96.94L339.19 95.32L338.74 100.75Z" fill="white"/>
</svg>
