<svg width="500" height="500" viewBox="0 0 500 500" fill="none" xmlns="http://www.w3.org/2000/svg">
<path d="M289.58 86H307.83L306.6 153.25H290.81L289.58 86Z" fill="#EBEBEB"/>
<path d="M306.6 161.67H290.82V177.45H306.6V161.67Z" fill="#EBEBEB"/>
<path d="M331.96 141.12L346.8 145.44L329.89 199.83L317.05 196.09L331.96 141.12Z" fill="#EBEBEB"/>
<path d="M327.883 206.685L315.055 202.951L311.321 215.778L324.149 219.512L327.883 206.685Z" fill="#EBEBEB"/>
<path d="M153 118.84L164.82 113.25L184.6 157.21L174.37 162.05L153 118.84Z" fill="#EBEBEB"/>
<path d="M187.177 162.69L176.95 167.518L181.778 177.746L192.005 172.918L187.177 162.69Z" fill="#EBEBEB"/>
<path d="M249.66 133L156 295.22H343.32L249.66 133Z" fill="#407BFF"/>
<path d="M249.66 156.5L176.36 283.47H322.97L249.66 156.5Z" fill="white"/>
<path d="M242.24 193.24H257.09L256.09 247.98H243.24L242.24 193.24Z" fill="#407BFF"/>
<path d="M256.08 254.84H243.24V267.68H256.08V254.84Z" fill="#407BFF"/>
<path d="M343.32 304.66H156V367.33H343.32V304.66Z" fill="#407BFF"/>
<path d="M339.11 363.15H160.21V308.84H339.11V363.15ZM161.21 362.15H338.11V309.84H161.21V362.15Z" fill="white"/>
<path d="M184.65 318.07H188.36L190.7 324.94L193.03 318.07H196.78L193.24 327.51L195.87 334.15L201.75 318.01H206.13L197.68 338.76H194.29L190.7 330.05L187.1 338.76H183.71L175.32 318.01H179.65L185.55 334.15L188.12 327.51L184.65 318.07Z" fill="#263238"/>
<path d="M212.38 318.01H215.95L223.86 338.76H219.71L217.76 333.59H210.51L208.61 338.76H204.46L212.38 318.01ZM217.03 330.75L214.17 322.59L211.17 330.74L217.03 330.75Z" fill="#263238"/>
<path d="M226.12 338.76V318.01H235.3C236.215 318.001 237.119 318.206 237.94 318.61C238.732 318.997 239.442 319.533 240.03 320.19C240.62 320.841 241.088 321.593 241.41 322.41C241.732 323.204 241.898 324.053 241.9 324.91C241.915 326.203 241.569 327.474 240.9 328.58C240.262 329.643 239.302 330.477 238.16 330.96L242.9 338.76H238.37L234.13 331.81H230.13V338.76H226.12ZM230.12 328.27H235.18C235.529 328.264 235.872 328.175 236.18 328.01C236.503 327.829 236.785 327.584 237.01 327.29C237.253 326.966 237.443 326.605 237.57 326.22C237.704 325.796 237.772 325.354 237.77 324.91C237.774 324.45 237.696 323.993 237.54 323.56C237.39 323.174 237.177 322.816 236.91 322.5C236.659 322.206 236.349 321.967 236 321.8C235.69 321.641 235.348 321.556 235 321.55H230.12V328.27Z" fill="#263238"/>
<path d="M249.59 325.46V338.76H245.59V318.01H248.71L259.5 331.59V318.04H263.5V338.76H260.26L249.59 325.46Z" fill="#263238"/>
<path d="M267.86 338.76V318.01H271.86V338.76H267.86Z" fill="#263238"/>
<path d="M280.25 325.46V338.76H276.25V318.01H279.37L290.16 331.59V318.04H294.16V338.76H290.89L280.25 325.46Z" fill="#263238"/>
<path d="M312.92 336.42C312.179 337.209 311.283 337.837 310.289 338.265C309.294 338.694 308.223 338.913 307.14 338.91C305.812 338.92 304.498 338.64 303.29 338.09C302.109 337.558 301.047 336.793 300.17 335.84C299.261 334.856 298.545 333.709 298.06 332.46C297.535 331.126 297.274 329.703 297.29 328.27C297.269 325.544 298.313 322.918 300.2 320.95C301.108 319.997 302.196 319.232 303.4 318.7C304.656 318.133 306.021 317.846 307.4 317.86C309.147 317.812 310.875 318.237 312.4 319.09C313.75 319.86 314.843 321.011 315.54 322.4L312.54 324.62C312.061 323.627 311.294 322.802 310.34 322.25C309.402 321.705 308.335 321.422 307.25 321.43C306.414 321.423 305.588 321.615 304.84 321.99C304.114 322.355 303.476 322.874 302.97 323.51C302.446 324.176 302.04 324.927 301.77 325.73C301.486 326.588 301.344 327.486 301.35 328.39C301.345 329.321 301.504 330.245 301.82 331.12C302.109 331.928 302.543 332.677 303.1 333.33C303.645 333.946 304.308 334.446 305.05 334.8C305.812 335.163 306.646 335.348 307.49 335.34C308.549 335.306 309.588 335.034 310.528 334.544C311.468 334.054 312.285 333.359 312.92 332.51V331.05H308.74V328.05H316.26V338.72H312.92V336.42Z" fill="#263238"/>
<path d="M320.08 330.96V317.81H324V330.96H320.08ZM320.08 338.76V334.35H324V338.76H320.08Z" fill="#263238"/>
<path d="M181.11 344.84H183L187.18 355.84H184.98L183.98 353.1H180.14L179.14 355.84H176.94L181.11 344.84ZM183.57 351.58L182.06 347.27L180.48 351.59L183.57 351.58Z" fill="white"/>
<path d="M195.51 346.71H192V355.82H189.86V346.71H186.35V344.84H195.49L195.51 346.71Z" fill="white"/>
<path d="M205.08 346.71H201.57V355.82H199.45V346.71H195.94V344.84H205.08V346.71Z" fill="white"/>
<path d="M214.06 353.95V355.82H206.44V344.82H213.92V346.69H208.57V349.34H213.2V351.07H208.57V353.93L214.06 353.95Z" fill="white"/>
<path d="M217.86 348.78V355.78H215.72V344.78H217.38L223.1 351.99V344.8H225.23V355.8H223.5L217.86 348.78Z" fill="white"/>
<path d="M235.74 346.71H232.23V355.82H230.11V346.71H226.6V344.84H235.74V346.71Z" fill="white"/>
<path d="M237.1 355.82V344.82H239.24V355.82H237.1Z" fill="white"/>
<path d="M246.21 355.9C245.453 355.908 244.704 355.744 244.02 355.42C243.382 355.121 242.81 354.695 242.34 354.17C241.867 353.652 241.497 353.047 241.25 352.39C240.993 351.734 240.861 351.035 240.86 350.33C240.86 349.61 240.999 348.897 241.27 348.23C241.532 347.571 241.916 346.968 242.4 346.45C242.881 345.929 243.463 345.511 244.11 345.22C244.785 344.913 245.518 344.756 246.26 344.76C247.011 344.755 247.754 344.922 248.43 345.25C249.068 345.563 249.639 345.998 250.11 346.53C250.574 347.058 250.939 347.664 251.19 348.32C251.573 349.311 251.67 350.389 251.471 351.432C251.271 352.475 250.782 353.441 250.06 354.22C249.581 354.737 249.003 355.152 248.36 355.44C247.685 355.746 246.951 355.903 246.21 355.9ZM243.02 350.33C243.023 350.798 243.097 351.264 243.24 351.71C243.377 352.135 243.591 352.532 243.87 352.88C244.144 353.219 244.484 353.498 244.87 353.7C245.293 353.907 245.759 354.015 246.23 354.015C246.701 354.015 247.167 353.907 247.59 353.7C247.98 353.495 248.321 353.209 248.59 352.86C248.865 352.506 249.074 352.107 249.21 351.68C249.349 351.247 249.42 350.795 249.42 350.34C249.418 349.871 249.341 349.405 249.19 348.96C249.049 348.537 248.836 348.141 248.56 347.79C248.288 347.452 247.947 347.176 247.56 346.98C247.138 346.773 246.675 346.665 246.205 346.665C245.735 346.665 245.272 346.773 244.85 346.98C244.46 347.185 244.119 347.471 243.85 347.82C243.58 348.172 243.374 348.568 243.24 348.99C243.098 349.423 243.024 349.875 243.02 350.33Z" fill="white"/>
<path d="M255.35 348.78V355.78H253.21V344.78H254.86L260.58 351.99V344.8H262.71V355.8H260.98L255.35 348.78Z" fill="white"/>
<path d="M268.72 355.82V344.82H273.38C273.865 344.818 274.344 344.927 274.78 345.14C275.195 345.346 275.568 345.628 275.88 345.97C276.189 346.319 276.436 346.718 276.61 347.15C276.778 347.57 276.866 348.018 276.87 348.47C276.871 348.932 276.787 349.389 276.62 349.82C276.466 350.25 276.232 350.647 275.93 350.99C275.627 351.331 275.26 351.609 274.85 351.81C274.414 352.021 273.934 352.127 273.45 352.12H270.86V355.8L268.72 355.82ZM270.86 350.27H273.33C273.523 350.275 273.714 350.234 273.888 350.15C274.062 350.067 274.213 349.943 274.33 349.79C274.616 349.419 274.758 348.957 274.73 348.49C274.735 348.234 274.691 347.979 274.6 347.74C274.528 347.535 274.42 347.346 274.28 347.18C274.154 347.027 273.993 346.906 273.81 346.83C273.637 346.752 273.45 346.711 273.26 346.71H270.86V350.27Z" fill="white"/>
<path d="M278.36 355.82V344.82H280.49V353.93H286.09V355.8L278.36 355.82Z" fill="white"/>
<path d="M295.01 353.95V355.82H287.39V344.82H294.86V346.69H289.51V349.34H294.13V351.07H289.51V353.93L295.01 353.95Z" fill="white"/>
<path d="M299.8 344.84H301.69L305.86 355.84H303.67L302.67 353.1H298.86L297.86 355.84H295.66L299.8 344.84ZM302.26 351.59L300.74 347.28L299.17 351.59H302.26Z" fill="white"/>
<path d="M313.44 347.72C313.321 347.607 313.19 347.506 313.05 347.42C312.825 347.284 312.591 347.164 312.35 347.06C312.062 346.935 311.765 346.834 311.46 346.76C311.133 346.675 310.797 346.631 310.46 346.63C309.996 346.596 309.533 346.711 309.14 346.96C308.999 347.065 308.886 347.203 308.811 347.361C308.736 347.52 308.702 347.695 308.71 347.87C308.701 348.072 308.757 348.272 308.87 348.44C308.997 348.603 309.157 348.736 309.34 348.83C309.589 348.959 309.85 349.063 310.12 349.14L311.21 349.43C311.75 349.58 312.21 349.73 312.68 349.9C313.081 350.046 313.455 350.255 313.79 350.52C314.087 350.756 314.327 351.057 314.49 351.4C314.669 351.802 314.754 352.24 314.74 352.68C314.755 353.203 314.641 353.721 314.41 354.19C314.198 354.593 313.888 354.937 313.51 355.19C313.115 355.457 312.674 355.651 312.21 355.76C311.705 355.873 311.188 355.93 310.67 355.93C309.843 355.931 309.02 355.806 308.23 355.56C307.459 355.327 306.73 354.972 306.07 354.51L307.01 352.67C307.164 352.806 307.332 352.927 307.51 353.03C307.787 353.198 308.074 353.349 308.37 353.48C308.724 353.64 309.093 353.767 309.47 353.86C309.872 353.964 310.285 354.017 310.7 354.02C311.88 354.02 312.47 353.64 312.47 352.89C312.472 352.67 312.402 352.456 312.27 352.28C312.108 352.099 311.911 351.952 311.69 351.85C311.404 351.71 311.106 351.596 310.8 351.51L309.62 351.17C309.152 351.047 308.695 350.89 308.25 350.7C307.886 350.556 307.548 350.353 307.25 350.1C307 349.876 306.802 349.599 306.67 349.29C306.53 348.944 306.462 348.573 306.47 348.2C306.463 347.69 306.569 347.184 306.78 346.72C306.98 346.296 307.274 345.923 307.64 345.63C308.025 345.339 308.458 345.119 308.92 344.98C309.425 344.825 309.951 344.747 310.48 344.75C311.206 344.746 311.928 344.871 312.61 345.12C313.21 345.335 313.781 345.624 314.31 345.98L313.44 347.72Z" fill="white"/>
<path d="M324 353.95V355.82H316.38V344.82H323.86V346.69H318.51V349.34H323.13V351.07H318.51V353.93L324 353.95Z" fill="white"/>
</svg>
