<svg width="18px" height="18px" viewBox="0 0 683 683" fill="none" xmlns="http://www.w3.org/2000/svg">
<path d="M333.333 32C314.533 34.2667 298 44.4 288.133 59.7334C280.533 71.8667 8.5332 555.6 5.59987 562.267C1.46654 571.867 -0.266796 585.6 1.46654 595.867C6.26654 626.267 27.5999 647.067 57.4665 650.667C64.7999 651.6 164.533 652 347.333 651.733L626 651.333L634.667 648.4C646.667 644.267 654.8 639.2 663.467 630.667C681.2 613.067 686.8 584.933 677.067 562.267C674.133 555.467 402.267 72 394.533 59.7334C381.867 39.8667 358.267 29.2 333.333 32ZM480.133 340.667C555.733 474.933 617.867 585.467 618.267 586.267C618.8 587.6 562.933 588 341.467 588C188.8 588 63.9999 587.733 63.9999 587.333C63.9999 585.333 340.667 96 341.6 96.2667C342.133 96.5334 404.533 206.4 480.133 340.667Z" fill="#FF1F26"/>
<path d="M332.267 270.667C313.467 274.533 299.733 290 296.667 310.667C296 314.933 298.267 333.2 304.667 375.333C309.467 407.6 314.133 436.133 314.933 438.667C321.2 458.933 346.533 464.533 360.933 448.933C363.867 445.733 366.933 441.067 367.733 438.533C368.533 436 373.2 407.6 378.133 375.333C388.133 308.8 388.267 306.133 380.933 292.8C371.867 276.133 351.067 266.8 332.267 270.667Z" fill="#FF1F26"/>
<path d="M329.6 485.467C320.8 489.867 316.667 497.067 316.667 508C316.667 518.133 319.6 523.867 327.733 529.467C334.533 534 348.133 534 354.933 529.467C370.133 519.067 370.533 496.8 355.733 486.933C348.267 482.133 337.467 481.467 329.6 485.467Z" fill="#FF1F26"/>
</svg>
